<?xml version="1.0" encoding="utf-8"?>
<!-- Generator: Adobe Illustrator 24.3.0, SVG Export Plug-In . SVG Version: 6.00 Build 0)  -->
<svg version="1.1" id="Capa_1" xmlns="http://www.w3.org/2000/svg" xmlns:xlink="http://www.w3.org/1999/xlink" x="0px" y="0px"
	 viewBox="0 0 1068.46 220.68" style="enable-background:new 0 0 1068.46 220.68;" xml:space="preserve">
<style type="text/css">
	.st0{fill:url(#SVGID_1_);}
	.st1{fill:url(#SVGID_2_);}
	.st2{fill:url(#SVGID_3_);}
	.st3{fill:url(#SVGID_4_);}
	.st4{fill:#232323;}
</style>
<g>
	<g>
		<g>
			<linearGradient id="SVGID_1_" gradientUnits="userSpaceOnUse" x1="121.2886" y1="11.2171" x2="121.2886" y2="199.3348">
				<stop  offset="0" style="stop-color:#2AF299"/>
				<stop  offset="1" style="stop-color:#08A1F1"/>
			</linearGradient>
			<path class="st0" d="M121.24,203.81c0.03,0.03,0.07,0.05,0.09,0.07v-0.15C121.31,203.76,121.27,203.78,121.24,203.81z
				 M121.24,165.09c0.01,0.03,0.02,0.05,0.04,0.07c0.02-0.03,0.04-0.07,0.06-0.09v-0.15C121.31,164.97,121.27,165.03,121.24,165.09z
				"/>
		</g>
		<g>
			<linearGradient id="SVGID_2_" gradientUnits="userSpaceOnUse" x1="121.1902" y1="11.2171" x2="121.1902" y2="199.3348">
				<stop  offset="0" style="stop-color:#2AF299"/>
				<stop  offset="1" style="stop-color:#08A1F1"/>
			</linearGradient>
			<path class="st1" d="M121.14,203.74v0.15c0.04-0.03,0.07-0.06,0.1-0.07C121.2,203.79,121.18,203.76,121.14,203.74z
				 M121.14,164.92v0.15c0.02,0.03,0.04,0.07,0.06,0.09c0.02-0.03,0.03-0.05,0.05-0.07C121.2,165.03,121.17,164.97,121.14,164.92z"
				/>
			<linearGradient id="SVGID_3_" gradientUnits="userSpaceOnUse" x1="121.237" y1="11.2175" x2="121.237" y2="199.3304">
				<stop  offset="0" style="stop-color:#2AF299"/>
				<stop  offset="1" style="stop-color:#08A1F1"/>
			</linearGradient>
			<path class="st2" d="M204.35,59.8c8.77-12.18,11.63-25.94,9.99-40.87c-0.09-0.91-1.03-1.49-1.9-1.17
				c-8.75,3.16-17.57,6.31-26.37,9.56c-3.83,1.42-7.53,3.25-11.42,4.48c-1.21,0.39-2.91-0.42-4.25-0.98
				c-9.07-3.84-17.8-9.01-27.22-11.39c-7.17-1.8-14.46-2.68-21.85-2.62h-0.2c-7.38-0.06-14.68,0.82-21.85,2.62
				c-9.42,2.38-18.15,7.54-27.22,11.39c-1.35,0.56-3.05,1.37-4.24,0.98c-3.89-1.23-7.59-3.06-11.43-4.48
				c-8.79-3.25-17.61-6.4-26.37-9.56c-0.86-0.32-1.8,0.26-1.9,1.17C26.5,33.86,29.34,47.62,38.13,59.8c2.07,2.88,1.6,4.79,0.23,7.49
				c-6.87,13.6-10.79,27.91-10.52,43.32c0.28,15.29,0.06,30.6,0.06,45.9v3.7c0,1.56,1.05,2.93,2.57,3.31
				c21.07,5.34,55.61,13.51,90.66,40.22c0.04,0.02,0.07,0.06,0.11,0.07c0.02-0.02,0.07-0.05,0.09-0.07
				c35.06-26.71,69.59-34.88,90.66-40.22c1.52-0.38,2.57-1.75,2.57-3.31v-3.7c0-15.3-0.22-30.61,0.06-45.9
				c0.28-15.42-3.66-29.72-10.52-43.32C202.73,64.59,202.27,62.68,204.35,59.8z M57.89,43.79c4.14,1.53,8.15,3.46,12.36,4.72
				c1.25,0.39,3.27-0.48,4.48-1.39c8.13-6.2,17.41-10.45,27.07-12.84c6.35-1.58,12.81-2.47,19.33-2.47h0.2
				c6.54,0,12.98,0.89,19.33,2.47c9.68,2.39,18.94,6.64,27.09,12.84c1.19,0.91,3.21,1.78,4.46,1.39c4.22-1.27,8.22-3.19,12.36-4.72
				c4.21-1.56,8.46-2.96,13.51-4.71c-3.44,9.84-8.87,16.87-15.58,22.89c-9.07,8.17-18.72,15.7-27.37,24.27
				c-6.71,6.65-12.75,14.15-18.16,21.9c-5.2,7.42-9.24,15.64-13.72,23.56c-0.71,1.29-1.35,2.07-2.02,2.1
				c-0.68-0.01-1.29-0.81-2.03-2.1c-4.46-7.92-8.52-16.14-13.71-23.56c-5.42-7.74-11.45-15.24-18.16-21.9
				c-8.65-8.58-18.31-16.11-27.38-24.27c-6.71-6.02-12.14-13.05-15.58-22.89C49.45,40.82,53.7,42.23,57.89,43.79z M165.43,116.87
				c-5.06,3.29-11.18,2.88-15.51-1.34c0.88-1.27,1.82-2.6,2.73-3.96c0.95-1.36,1.87-2.75,2.76-4.07c6.88,3.13,11.76,1.87,16.03-3.82
				C173.09,108.3,170.76,113.43,165.43,116.87z M92.56,115.53c-4.33,4.22-10.46,4.63-15.52,1.34c-5.32-3.43-7.66-8.56-6.01-13.18
				c4.26,5.69,9.15,6.95,16.04,3.82c0.89,1.31,1.8,2.71,2.75,4.07C90.73,112.93,91.67,114.27,92.56,115.53z M199.54,148.57
				c-0.01,1.07-1,2.68-1.94,3.08c-2.38,1.01-5.04,1.29-7.47,2.17c-13.05,4.7-26.34,8.87-39,14.47
				c-10.24,4.51-19.81,10.56-29.87,16.14c-10.06-5.59-19.64-11.63-29.89-16.14c-12.66-5.6-25.95-9.77-39-14.47
				c-2.44-0.88-5.1-1.16-7.46-2.17c-0.95-0.4-1.94-2.02-1.96-3.08c-0.12-15.29-0.91-30.66,0.23-45.88c0.71-9.3,4.48-18.38,7.15-28.6
				c4.43,3.7,7.49,6.23,10.51,8.81c1.62,1.39,1.99,2.93,0.5,4.71c-12.25,14.68-5.93,37.7,12.84,44.99
				c8.79,3.42,17.82,2.44,26.17-3.34c6.85,11.74,13.59,23.29,20.8,35.66c0.04,0.05,0.07,0.11,0.11,0.16
				c0.02-0.06,0.07-0.12,0.09-0.16c7.21-12.37,13.95-23.92,20.8-35.66c8.36,5.78,17.39,6.76,26.18,3.34
				c18.77-7.29,25.08-30.31,12.83-44.99c-1.49-1.78-1.11-3.32,0.5-4.71c3.02-2.58,6.08-5.11,10.51-8.81
				c2.68,10.22,6.43,19.3,7.15,28.6C200.46,117.91,199.66,133.28,199.54,148.57z"/>
			<linearGradient id="SVGID_4_" gradientUnits="userSpaceOnUse" x1="121.2356" y1="50.7348" x2="121.2356" y2="90.4604">
				<stop  offset="0" style="stop-color:#2AF299"/>
				<stop  offset="1" style="stop-color:#08A1F1"/>
			</linearGradient>
			<path class="st3" d="M155.47,56.01c0.34,0.19,0.4,0.64,0.12,0.91l-34.33,33.54c-0.01-0.01-0.01-0.01-0.02-0.02
				c-0.01,0-0.02,0.01-0.02,0.02c-11.11-10.84-22.58-22.04-34.34-33.53c-0.28-0.27-0.22-0.73,0.12-0.91
				c2.98-1.63,6.31-3.79,9.93-5.03c1.85-0.64,4.94,0.05,6.51,1.32c5.32,4.33,10.33,9.08,15.21,13.93c1.02,1,1.8,1.5,2.58,1.5h0.01
				c0.77,0,1.57-0.5,2.58-1.5c4.87-4.85,9.89-9.59,15.22-13.93c1.56-1.28,4.66-1.97,6.5-1.32
				C149.17,52.22,152.49,54.38,155.47,56.01z"/>
		</g>
	</g>
	<g>
		<path class="st4" d="M685.94,157.48h-13.61l-2.4,6.24h-12.28l15.66-35.81h11.87l15.65,35.81h-12.48L685.94,157.48z M682.62,148.78
			l-3.48-9l-3.48,9H682.62z"/>
		<path class="st4" d="M724.77,154.72h-3.27v9h-12.07v-35.81h17.24c3.31,0,6.19,0.55,8.64,1.64c2.46,1.09,4.35,2.66,5.68,4.71
			c1.33,2.05,1.99,4.43,1.99,7.16c0,2.56-0.58,4.79-1.74,6.7c-1.16,1.91-2.83,3.43-5.01,4.55l7.52,11.05h-12.89L724.77,154.72z
			 M729.58,138.32c-0.82-0.73-2.05-1.1-3.68-1.1h-4.4v8.39h4.4c1.64,0,2.86-0.37,3.68-1.1c0.82-0.73,1.23-1.77,1.23-3.1
			C730.81,140.09,730.4,139.06,729.58,138.32z"/>
		<path class="st4" d="M777.87,144.84h10.49v15.14c-2.11,1.47-4.57,2.59-7.37,3.38c-2.8,0.78-5.54,1.18-8.24,1.18
			c-3.82,0-7.25-0.79-10.28-2.38c-3.04-1.59-5.42-3.8-7.14-6.65c-1.72-2.85-2.58-6.08-2.58-9.69c0-3.62,0.86-6.85,2.58-9.69
			c1.72-2.85,4.13-5.07,7.21-6.65c3.09-1.59,6.57-2.38,10.46-2.38c3.51,0,6.66,0.59,9.44,1.77c2.78,1.18,5.09,2.89,6.93,5.14
			l-7.72,6.8c-2.25-2.62-4.93-3.94-8.03-3.94c-2.66,0-4.78,0.8-6.34,2.4c-1.57,1.6-2.35,3.79-2.35,6.55c0,2.69,0.78,4.86,2.33,6.5
			s3.62,2.46,6.21,2.46c1.54,0,3-0.29,4.4-0.87V144.84z"/>
		<path class="st4" d="M829.95,154.62v9.11h-29.77v-35.81h29.11v9.11h-17.24v4.19h15.14v8.7h-15.14v4.71H829.95z"/>
		<path class="st4" d="M876.56,127.91v35.81h-9.93l-13.61-16.27v16.27h-11.77v-35.81h9.93l13.61,16.27v-16.27H876.56z"/>
		<path class="st4" d="M896.81,137.27h-10.49v-9.36h33.05v9.36h-10.49v26.45h-12.07V137.27z"/>
		<path class="st4" d="M929.15,127.91h12.07v35.81h-12.07V127.91z"/>
		<path class="st4" d="M989,127.91v35.81h-9.93l-13.61-16.27v16.27H953.7v-35.81h9.93l13.61,16.27v-16.27H989z"/>
		<path class="st4" d="M1025.88,157.48h-13.61l-2.4,6.24h-12.28l15.66-35.81h11.87l15.65,35.81h-12.48L1025.88,157.48z
			 M1022.56,148.78l-3.48-9l-3.48,9H1022.56z"/>
	</g>
	<g>
		<path class="st4" d="M311.53,92.19h-50.57c0.91,4.14,3.07,7.41,6.46,9.82c3.39,2.4,7.62,3.6,12.67,3.6c3.48,0,6.56-0.52,9.26-1.55
			c2.69-1.04,5.2-2.67,7.52-4.91l10.31,11.18c-6.3,7.21-15.49,10.81-27.58,10.81c-7.54,0-14.21-1.47-20-4.41
			c-5.8-2.94-10.27-7.02-13.42-12.24c-3.15-5.22-4.72-11.14-4.72-17.77c0-6.54,1.55-12.44,4.66-17.7c3.11-5.26,7.37-9.36,12.8-12.3
			c5.42-2.94,11.49-4.41,18.21-4.41c6.54,0,12.47,1.41,17.77,4.22c5.3,2.82,9.46,6.86,12.49,12.12c3.02,5.26,4.53,11.37,4.53,18.33
			C311.91,87.22,311.79,88.96,311.53,92.19z M266.18,70.69c-2.98,2.49-4.81,5.89-5.46,10.19h32.92c-0.66-4.22-2.48-7.6-5.46-10.12
			c-2.98-2.53-6.63-3.79-10.94-3.79C272.85,66.96,269.17,68.21,266.18,70.69z"/>
		<path class="st4" d="M323.59,117.66c-2.32-2.32-3.48-5.22-3.48-8.7c0-3.56,1.16-6.44,3.48-8.64c2.32-2.19,5.17-3.29,8.57-3.29
			s6.25,1.1,8.57,3.29c2.32,2.2,3.48,5.08,3.48,8.64c0,3.48-1.16,6.38-3.48,8.7c-2.32,2.32-5.18,3.48-8.57,3.48
			S325.9,119.98,323.59,117.66z"/>
		<path class="st4" d="M369.62,116.73c-5.67-2.94-10.11-7.02-13.29-12.24c-3.19-5.22-4.78-11.14-4.78-17.77
			c0-6.63,1.59-12.55,4.78-17.77c3.19-5.22,7.62-9.29,13.29-12.24c5.67-2.94,12.07-4.41,19.2-4.41c7.04,0,13.19,1.47,18.45,4.41
			c5.26,2.94,9.09,7.15,11.49,12.62l-15.04,8.07c-3.48-6.13-8.49-9.19-15.03-9.19c-5.05,0-9.24,1.66-12.55,4.97
			c-3.32,3.31-4.97,7.83-4.97,13.54s1.65,10.23,4.97,13.55c3.31,3.31,7.49,4.97,12.55,4.97c6.63,0,11.64-3.07,15.03-9.2l15.04,8.2
			c-2.41,5.3-6.24,9.44-11.49,12.43c-5.26,2.98-11.41,4.47-18.45,4.47C381.69,121.14,375.29,119.67,369.62,116.73z"/>
		<path class="st4" d="M441.93,116.73c-5.59-2.94-9.96-7.02-13.11-12.24c-3.15-5.22-4.72-11.14-4.72-17.77
			c0-6.63,1.57-12.55,4.72-17.77c3.15-5.22,7.52-9.29,13.11-12.24c5.59-2.94,11.91-4.41,18.95-4.41c7.04,0,13.34,1.47,18.89,4.41
			c5.55,2.94,9.9,7.02,13.04,12.24c3.15,5.22,4.72,11.14,4.72,17.77c0,6.63-1.58,12.55-4.72,17.77c-3.15,5.22-7.5,9.3-13.04,12.24
			c-5.55,2.94-11.85,4.41-18.89,4.41C453.84,121.14,447.53,119.67,441.93,116.73z M473.12,100.2c3.19-3.35,4.78-7.85,4.78-13.48
			c0-5.63-1.6-10.12-4.78-13.48c-3.19-3.35-7.27-5.03-12.24-5.03c-4.97,0-9.07,1.68-12.3,5.03c-3.23,3.36-4.85,7.85-4.85,13.48
			c0,5.63,1.61,10.13,4.85,13.48c3.23,3.36,7.33,5.04,12.3,5.04C465.85,105.24,469.93,103.56,473.12,100.2z"/>
		<path class="st4" d="M616.01,59.7c4.93,4.93,7.39,12.32,7.39,22.18v38.27h-19.38V84.86c0-5.3-1.1-9.26-3.29-11.87
			c-2.2-2.61-5.32-3.92-9.38-3.92c-4.56,0-8.16,1.47-10.81,4.41c-2.65,2.94-3.98,7.31-3.98,13.11v33.55h-19.38V84.86
			c0-10.52-4.23-15.78-12.68-15.78c-4.47,0-8.04,1.47-10.69,4.41c-2.65,2.94-3.98,7.31-3.98,13.11v33.55h-19.38V53.3h18.51V61
			c2.49-2.82,5.53-4.97,9.13-6.46c3.6-1.49,7.56-2.24,11.87-2.24c4.72,0,8.99,0.93,12.8,2.79c3.81,1.86,6.88,4.58,9.19,8.14
			c2.73-3.48,6.19-6.17,10.37-8.08c4.18-1.9,8.76-2.86,13.73-2.86C604.44,52.3,611.09,54.77,616.01,59.7z"/>
		<path class="st4" d="M746.35,59.7c4.93,4.93,7.39,12.32,7.39,22.18v38.27h-19.38V84.86c0-5.3-1.1-9.26-3.29-11.87
			c-2.2-2.61-5.32-3.92-9.38-3.92c-4.56,0-8.16,1.47-10.81,4.41c-2.65,2.94-3.98,7.31-3.98,13.11v33.55h-19.38V84.86
			c0-10.52-4.23-15.78-12.68-15.78c-4.47,0-8.04,1.47-10.69,4.41c-2.65,2.94-3.98,7.31-3.98,13.11v33.55H640.8V53.3h18.51V61
			c2.49-2.82,5.53-4.97,9.13-6.46c3.6-1.49,7.56-2.24,11.87-2.24c4.72,0,8.99,0.93,12.8,2.79c3.81,1.86,6.88,4.58,9.19,8.14
			c2.73-3.48,6.19-6.17,10.37-8.08c4.18-1.9,8.76-2.86,13.73-2.86C734.78,52.3,741.43,54.77,746.35,59.7z"/>
		<path class="st4" d="M837,92.19h-50.57c0.91,4.14,3.07,7.41,6.46,9.82c3.39,2.4,7.62,3.6,12.67,3.6c3.48,0,6.56-0.52,9.26-1.55
			c2.69-1.04,5.2-2.67,7.52-4.91l10.31,11.18c-6.3,7.21-15.49,10.81-27.58,10.81c-7.54,0-14.21-1.47-20.01-4.41
			c-5.8-2.94-10.27-7.02-13.42-12.24c-3.15-5.22-4.72-11.14-4.72-17.77c0-6.54,1.55-12.44,4.66-17.7s7.37-9.36,12.8-12.3
			c5.42-2.94,11.49-4.41,18.21-4.41c6.54,0,12.47,1.41,17.77,4.22c5.3,2.82,9.46,6.86,12.49,12.12c3.02,5.26,4.53,11.37,4.53,18.33
			C837.37,87.22,837.25,88.96,837,92.19z M791.65,70.69c-2.98,2.49-4.81,5.89-5.46,10.19h32.92c-0.66-4.22-2.48-7.6-5.46-10.12
			c-2.98-2.53-6.63-3.79-10.94-3.79C798.32,66.96,794.63,68.21,791.65,70.69z"/>
		<path class="st4" d="M878.19,54.79c3.94-1.65,8.47-2.48,13.61-2.48V70.2c-2.15-0.17-3.6-0.25-4.35-0.25
			c-5.55,0-9.9,1.55-13.04,4.66c-3.15,3.11-4.72,7.77-4.72,13.98v31.56h-19.38V53.3h18.51v8.82
			C871.12,58.89,874.25,56.44,878.19,54.79z"/>
		<path class="st4" d="M915.84,116.73c-5.67-2.94-10.11-7.02-13.29-12.24c-3.19-5.22-4.78-11.14-4.78-17.77
			c0-6.63,1.59-12.55,4.78-17.77c3.19-5.22,7.62-9.29,13.29-12.24c5.67-2.94,12.07-4.41,19.2-4.41c7.04,0,13.19,1.47,18.45,4.41
			c5.26,2.94,9.09,7.15,11.49,12.62l-15.04,8.07c-3.48-6.13-8.49-9.19-15.03-9.19c-5.05,0-9.24,1.66-12.55,4.97
			c-3.32,3.31-4.97,7.83-4.97,13.54s1.65,10.23,4.97,13.55c3.31,3.31,7.49,4.97,12.55,4.97c6.63,0,11.64-3.07,15.03-9.2l15.04,8.2
			c-2.41,5.3-6.24,9.44-11.49,12.43c-5.26,2.98-11.41,4.47-18.45,4.47C927.91,121.14,921.51,119.67,915.84,116.73z"/>
		<path class="st4" d="M1040.4,92.19h-50.57c0.91,4.14,3.07,7.41,6.46,9.82c3.39,2.4,7.62,3.6,12.67,3.6c3.48,0,6.56-0.52,9.26-1.55
			c2.69-1.04,5.2-2.67,7.52-4.91l10.31,11.18c-6.3,7.21-15.49,10.81-27.58,10.81c-7.54,0-14.21-1.47-20.01-4.41
			c-5.8-2.94-10.27-7.02-13.42-12.24c-3.15-5.22-4.72-11.14-4.72-17.77c0-6.54,1.55-12.44,4.66-17.7s7.37-9.36,12.8-12.3
			c5.42-2.94,11.49-4.41,18.21-4.41c6.54,0,12.47,1.41,17.77,4.22c5.3,2.82,9.46,6.86,12.49,12.12c3.02,5.26,4.53,11.37,4.53,18.33
			C1040.77,87.22,1040.65,88.96,1040.4,92.19z M995.04,70.69c-2.98,2.49-4.81,5.89-5.46,10.19h32.92c-0.66-4.22-2.48-7.6-5.46-10.12
			c-2.98-2.53-6.63-3.79-10.94-3.79C1001.71,66.96,998.03,68.21,995.04,70.69z"/>
	</g>
</g>
</svg>
